<svg xmlns="http://www.w3.org/2000/svg" viewBox="0 0 1142 336" width="11.9in" height="3in">
    <path transform="translate(9.0 279) scale(0.253552898714189 -0.3930131004366812)" d="M20 25Q20 38 31.5 49.0Q43 60 57 60H143L258 564L166 484Q154 474 143 474Q132 474 125.0 481.0Q118 488 118 498Q118 514 131 525L286 662Q297 672 311 672Q324 672 330.5 664.5Q337 657 335 645L202 60H271Q283 60 289.5 53.5Q296 47 296 37Q296 23 285.5 11.5Q275 0 261 0H45Q33 0 26.5 7.0Q20 14 20 25Z" fill="none" stroke="black"/>
    <path transform="translate(109.40694789081886 279) scale(0.253552898714189 -0.3930131004366812)" d="M74 225Q74 326 122.0 433.0Q170 540 248.5 610.5Q327 681 411 681Q489 681 534.0 616.5Q579 552 579 452Q579 351 531.0 243.5Q483 136 405.0 65.0Q327 -6 242 -6Q190 -6 152.0 24.0Q114 54 94.0 106.5Q74 159 74 225ZM520 439Q520 519 487.5 570.5Q455 622 399 622Q331 622 269.5 560.5Q208 499 171.0 408.0Q134 317 134 235Q134 156 166.0 104.5Q198 53 255 53Q322 53 383.5 114.5Q445 176 482.5 267.0Q520 358 520 439Z" fill="none" stroke="black"/>
    <path transform="translate(264.58132190390256 279) scale(0.253552898714189 -0.3930131004366812)" d="M-10 30Q-10 51 7.0 69.0Q24 87 42 87Q54 87 61.5 79.0Q69 71 69 58Q69 37 53.0 18.5Q37 0 17 0Q5 0 -2.5 8.5Q-10 17 -10 30Z" fill="none" stroke="black"/>
    <path transform="translate(301.0929393187457 279) scale(0.253552898714189 -0.3930131004366812)" d="M82 30Q58 47 41.5 70.0Q25 93 25 111Q25 125 36.5 136.5Q48 148 62 148Q72 148 76.5 144.5Q81 141 85 132Q107 93 136.5 73.5Q166 54 212 54Q265 54 315.0 90.0Q365 126 396.0 182.5Q427 239 427 297Q427 351 398.0 385.5Q369 420 310 420Q256 420 214.5 397.0Q173 374 155 356Q144 346 130 346Q119 346 112.0 352.5Q105 359 105 369Q105 373 107 381L189 642Q192 653 203.0 660.5Q214 668 225 668H514Q525 668 531.5 661.5Q538 655 538 644Q538 629 527.0 618.5Q516 608 501 608H239L188 444Q258 480 323 480Q398 480 443.5 434.0Q489 388 489 311Q489 234 447.0 160.5Q405 87 338.0 40.5Q271 -6 200 -6Q132 -6 82 30Z" fill="none" stroke="black"/>
    <path transform="translate(439.02571621926455 279) scale(0.253552898714189 -0.3930131004366812)" d="M107 16Q107 28 113.5 36.5Q120 45 129 48Q214 82 280.0 138.5Q346 195 388 268Q314 229 236 229Q167 229 124.5 267.0Q82 305 82 376Q82 449 117.5 518.5Q153 588 213.0 632.0Q273 676 341 676Q416 676 466.0 635.0Q516 594 516 505Q516 401 461.5 293.0Q407 185 322 108Q278 69 215.5 31.5Q153 -6 130 -6Q120 -6 113.5 0.0Q107 6 107 16ZM430 355Q458 434 458 494Q458 563 421.5 591.0Q385 619 329 619Q278 619 234.0 584.0Q190 549 164.5 494.5Q139 440 139 386Q139 328 174.5 307.0Q210 286 248 286Q307 286 353.5 308.0Q400 330 430 355Z" fill="none" stroke="black"/>
    <path transform="translate(574.1694112339273 279) scale(0.253552898714189 -0.3930131004366812)" d="M263 24 292 159 47 163Q37 163 29.5 169.5Q22 176 22 187Q22 197 33 211L403 663Q415 677 430 677Q443 677 450.5 668.5Q458 660 456 647L364 218H397Q407 218 413.5 211.0Q420 204 420 194Q420 178 408.0 167.5Q396 157 383 157L352 158L323 24Q321 12 309.5 3.0Q298 -6 286 -6Q274 -6 267.0 2.5Q260 11 263 24ZM373 540 112 223 305 220Z" fill="none" stroke="black"/>
    <path transform="translate(697.142567110309 279) scale(0.253552898714189 -0.3930131004366812)" d="M-10 30Q-10 51 7.0 69.0Q24 87 42 87Q54 87 61.5 79.0Q69 71 69 58Q69 37 53.0 18.5Q37 0 17 0Q5 0 -2.5 8.5Q-10 17 -10 30Z" fill="none" stroke="black"/>
    <path transform="translate(733.6541845251522 279) scale(0.253552898714189 -0.3930131004366812)" d="M32 138Q32 212 82.0 270.0Q132 328 211 364Q135 403 135 472Q135 528 166.5 576.0Q198 624 250.0 652.5Q302 681 360 681Q428 681 468.5 646.5Q509 612 509 556Q509 438 367 371Q410 346 432.5 308.5Q455 271 455 226Q455 164 420.0 110.5Q385 57 327.0 25.5Q269 -6 204 -6Q126 -6 79.0 34.0Q32 74 32 138ZM450 545Q450 580 421.5 600.5Q393 621 347 621Q310 621 275.5 605.5Q241 590 218.5 559.5Q196 529 196 487Q196 456 220.0 435.5Q244 415 296 399Q368 424 409.0 459.5Q450 495 450 545ZM396 212Q396 257 365.0 289.0Q334 321 286 337Q200 310 146.0 262.5Q92 215 92 149Q92 106 127.0 79.5Q162 53 217 53Q264 53 305.5 74.5Q347 96 371.5 132.5Q396 169 396 212Z" fill="none" stroke="black"/>
    <path transform="translate(864.4874802616737 279) scale(0.253552898714189 -0.3930131004366812)" d="M107 16Q107 28 113.5 36.5Q120 45 129 48Q214 82 280.0 138.5Q346 195 388 268Q314 229 236 229Q167 229 124.5 267.0Q82 305 82 376Q82 449 117.5 518.5Q153 588 213.0 632.0Q273 676 341 676Q416 676 466.0 635.0Q516 594 516 505Q516 401 461.5 293.0Q407 185 322 108Q278 69 215.5 31.5Q153 -6 130 -6Q120 -6 113.5 0.0Q107 6 107 16ZM430 355Q458 434 458 494Q458 563 421.5 591.0Q385 619 329 619Q278 619 234.0 584.0Q190 549 164.5 494.5Q139 440 139 386Q139 328 174.5 307.0Q210 286 248 286Q307 286 353.5 308.0Q400 330 430 355Z" fill="none" stroke="black"/>
    <path transform="translate(999.6311752763364 279) scale(0.253552898714189 -0.3930131004366812)" d="M272 333Q333 368 368.0 391.5Q403 415 428.5 449.0Q454 483 454 526Q454 565 424.0 589.5Q394 614 347 614Q295 614 252.5 589.0Q210 564 185 542Q183 541 177.0 535.0Q171 529 164.5 526.0Q158 523 151 523Q140 523 133.0 530.5Q126 538 126 548Q126 558 135.5 568.5Q145 579 165 595Q203 627 253.5 650.5Q304 674 360 674Q431 674 473.5 636.0Q516 598 516 539Q516 479 486.5 433.5Q457 388 413.0 356.5Q369 325 299 285Q242 252 203.5 224.0Q165 196 134.0 155.5Q103 115 88 59H396Q407 59 414.0 52.0Q421 45 421 35Q421 22 409.0 11.0Q397 0 384 0H14L20 28Q37 109 74.5 165.5Q112 222 159.0 258.5Q206 295 272 333Z" fill="none" stroke="black"/>
    <path transform="translate(842 321.0) scale(0.060906835100383486 -0.043668122270742356)" d="M272 333Q333 368 368.0 391.5Q403 415 428.5 449.0Q454 483 454 526Q454 565 424.0 589.5Q394 614 347 614Q295 614 252.5 589.0Q210 564 185 542Q183 541 177.0 535.0Q171 529 164.5 526.0Q158 523 151 523Q140 523 133.0 530.5Q126 538 126 548Q126 558 135.5 568.5Q145 579 165 595Q203 627 253.5 650.5Q304 674 360 674Q431 674 473.5 636.0Q516 598 516 539Q516 479 486.5 433.5Q457 388 413.0 356.5Q369 325 299 285Q242 252 203.5 224.0Q165 196 134.0 155.5Q103 115 88 59H396Q407 59 414.0 52.0Q421 45 421 35Q421 22 409.0 11.0Q397 0 384 0H14L20 28Q37 109 74.5 165.5Q112 222 159.0 258.5Q206 295 272 333Z" fill="none" stroke="black"/>
    <path transform="translate(868.1818181818181 321.0) scale(0.060906835100383486 -0.043668122270742356)" d="M74 225Q74 326 122.0 433.0Q170 540 248.5 610.5Q327 681 411 681Q489 681 534.0 616.5Q579 552 579 452Q579 351 531.0 243.5Q483 136 405.0 65.0Q327 -6 242 -6Q190 -6 152.0 24.0Q114 54 94.0 106.5Q74 159 74 225ZM520 439Q520 519 487.5 570.5Q455 622 399 622Q331 622 269.5 560.5Q208 499 171.0 408.0Q134 317 134 235Q134 156 166.0 104.5Q198 53 255 53Q322 53 383.5 114.5Q445 176 482.5 267.0Q520 358 520 439Z" fill="none" stroke="black"/>
    <path transform="translate(894.3636363636363 321.0) scale(0.060906835100383486 -0.043668122270742356)" d="M272 333Q333 368 368.0 391.5Q403 415 428.5 449.0Q454 483 454 526Q454 565 424.0 589.5Q394 614 347 614Q295 614 252.5 589.0Q210 564 185 542Q183 541 177.0 535.0Q171 529 164.5 526.0Q158 523 151 523Q140 523 133.0 530.5Q126 538 126 548Q126 558 135.5 568.5Q145 579 165 595Q203 627 253.5 650.5Q304 674 360 674Q431 674 473.5 636.0Q516 598 516 539Q516 479 486.5 433.5Q457 388 413.0 356.5Q369 325 299 285Q242 252 203.5 224.0Q165 196 134.0 155.5Q103 115 88 59H396Q407 59 414.0 52.0Q421 45 421 35Q421 22 409.0 11.0Q397 0 384 0H14L20 28Q37 109 74.5 165.5Q112 222 159.0 258.5Q206 295 272 333Z" fill="none" stroke="black"/>
    <path transform="translate(920.5454545454544 321.0) scale(0.060906835100383486 -0.043668122270742356)" d="M11 119Q11 133 22.0 142.0Q33 151 46 151Q64 151 69 135Q79 106 108.0 80.0Q137 54 193 54Q242 54 284.5 78.5Q327 103 352.5 144.5Q378 186 378 235Q378 278 354.0 303.5Q330 329 298.5 339.5Q267 350 240 350Q229 350 222.0 357.0Q215 364 215 374Q215 389 226.5 399.5Q238 410 253 410Q291 410 332.5 429.5Q374 449 401.5 479.5Q429 510 429 542Q429 575 399.0 598.5Q369 622 315 622Q270 622 241.0 610.5Q212 599 188 583Q186 581 179.0 577.0Q172 573 166 573Q153 573 147.0 580.0Q141 587 141 597Q141 621 184 644Q213 660 250.5 671.0Q288 682 328 682Q400 682 445.5 646.5Q491 611 491 556Q491 504 453.0 456.5Q415 409 360 382Q400 363 419.5 327.5Q439 292 439 248Q439 175 403.0 117.0Q367 59 308.0 26.5Q249 -6 182 -6Q133 -6 93.5 13.0Q54 32 32.5 61.5Q11 91 11 119Z" fill="none" stroke="black"/>
    <path transform="translate(946.7272727272725 321.0) scale(0.060906835100383486 -0.043668122270742356)" d="M55 245Q55 260 66.5 269.5Q78 279 91 279H335Q345 279 352.0 272.5Q359 266 359 256Q359 243 348.0 232.0Q337 221 323 221H79Q69 221 62.0 228.0Q55 235 55 245Z" fill="none" stroke="black"/>
    <path transform="translate(972.9090909090907 321.0) scale(0.060906835100383486 -0.043668122270742356)" d="M20 25Q20 38 31.5 49.0Q43 60 57 60H143L258 564L166 484Q154 474 143 474Q132 474 125.0 481.0Q118 488 118 498Q118 514 131 525L286 662Q297 672 311 672Q324 672 330.5 664.5Q337 657 335 645L202 60H271Q283 60 289.5 53.5Q296 47 296 37Q296 23 285.5 11.5Q275 0 261 0H45Q33 0 26.5 7.0Q20 14 20 25Z" fill="none" stroke="black"/>
    <path transform="translate(999.0909090909088 321.0) scale(0.060906835100383486 -0.043668122270742356)" d="M20 25Q20 38 31.5 49.0Q43 60 57 60H143L258 564L166 484Q154 474 143 474Q132 474 125.0 481.0Q118 488 118 498Q118 514 131 525L286 662Q297 672 311 672Q324 672 330.5 664.5Q337 657 335 645L202 60H271Q283 60 289.5 53.5Q296 47 296 37Q296 23 285.5 11.5Q275 0 261 0H45Q33 0 26.5 7.0Q20 14 20 25Z" fill="none" stroke="black"/>
    <path transform="translate(1025.272727272727 321.0) scale(0.060906835100383486 -0.043668122270742356)" d="M55 245Q55 260 66.5 269.5Q78 279 91 279H335Q345 279 352.0 272.5Q359 266 359 256Q359 243 348.0 232.0Q337 221 323 221H79Q69 221 62.0 228.0Q55 235 55 245Z" fill="none" stroke="black"/>
    <path transform="translate(1051.454545454545 321.0) scale(0.060906835100383486 -0.043668122270742356)" d="M20 25Q20 38 31.5 49.0Q43 60 57 60H143L258 564L166 484Q154 474 143 474Q132 474 125.0 481.0Q118 488 118 498Q118 514 131 525L286 662Q297 672 311 672Q324 672 330.5 664.5Q337 657 335 645L202 60H271Q283 60 289.5 53.5Q296 47 296 37Q296 23 285.5 11.5Q275 0 261 0H45Q33 0 26.5 7.0Q20 14 20 25Z" fill="none" stroke="black"/>
    <path transform="translate(1077.6363636363633 321.0) scale(0.060906835100383486 -0.043668122270742356)" d="M263 24 292 159 47 163Q37 163 29.5 169.5Q22 176 22 187Q22 197 33 211L403 663Q415 677 430 677Q443 677 450.5 668.5Q458 660 456 647L364 218H397Q407 218 413.5 211.0Q420 204 420 194Q420 178 408.0 167.5Q396 157 383 157L352 158L323 24Q321 12 309.5 3.0Q298 -6 286 -6Q274 -6 267.0 2.5Q260 11 263 24ZM373 540 112 223 305 220Z" fill="none" stroke="black"/>
</svg>
